<mxfile host="app.diagrams.net" modified="2023-02-06T08:30:22.234Z" agent="5.0 (Windows NT 10.0; Win64; x64) AppleWebKit/537.36 (KHTML, like Gecko) Chrome/109.0.0.0 Safari/537.36" etag="Gu3wgaWbS_eEba1zipiR" version="20.8.16" type="github">
  <diagram id="kgpKYQtTHZ0yAKxKKP6v" name="Page-1">
    <mxGraphModel dx="1434" dy="764" grid="1" gridSize="10" guides="1" tooltips="1" connect="1" arrows="1" fold="1" page="1" pageScale="1" pageWidth="850" pageHeight="1100" math="0" shadow="0">
      <root>
        <mxCell id="0" />
        <mxCell id="1" parent="0" />
        <mxCell id="3nuBFxr9cyL0pnOWT2aG-1" value="客户端" style="shape=umlLifeline;perimeter=lifelinePerimeter;container=1;collapsible=0;recursiveResize=0;rounded=1;shadow=0;strokeWidth=1;" parent="1" vertex="1">
          <mxGeometry x="30" y="80" width="100" height="340" as="geometry" />
        </mxCell>
        <mxCell id="3nuBFxr9cyL0pnOWT2aG-2" value="" style="points=[];perimeter=orthogonalPerimeter;rounded=1;shadow=0;strokeWidth=1;" parent="3nuBFxr9cyL0pnOWT2aG-1" vertex="1">
          <mxGeometry x="45" y="70" width="10" height="220" as="geometry" />
        </mxCell>
        <mxCell id="3nuBFxr9cyL0pnOWT2aG-4" value="" style="points=[];perimeter=orthogonalPerimeter;rounded=1;shadow=0;strokeWidth=1;" parent="3nuBFxr9cyL0pnOWT2aG-1" vertex="1">
          <mxGeometry x="50" y="120" width="10" height="80" as="geometry" />
        </mxCell>
        <mxCell id="3nuBFxr9cyL0pnOWT2aG-5" value="服务端" style="shape=umlLifeline;perimeter=lifelinePerimeter;container=1;collapsible=0;recursiveResize=0;rounded=1;shadow=0;strokeWidth=1;" parent="1" vertex="1">
          <mxGeometry x="330" y="80" width="100" height="340" as="geometry" />
        </mxCell>
        <mxCell id="3nuBFxr9cyL0pnOWT2aG-6" value="" style="points=[];perimeter=orthogonalPerimeter;rounded=1;shadow=0;strokeWidth=1;" parent="3nuBFxr9cyL0pnOWT2aG-5" vertex="1">
          <mxGeometry x="45" y="80" width="10" height="200" as="geometry" />
        </mxCell>
        <mxCell id="URJae1KiC8IEKNUxSkG4-6" value="" style="points=[];perimeter=orthogonalPerimeter;rounded=1;shadow=0;strokeWidth=1;" vertex="1" parent="3nuBFxr9cyL0pnOWT2aG-5">
          <mxGeometry x="50" y="120" width="10" height="80" as="geometry" />
        </mxCell>
        <mxCell id="3nuBFxr9cyL0pnOWT2aG-8" value="第一步：&#xa;1. 客户端将需要跳转的页面地址给到服务端；&#xa;2. 业务逻辑需要的参数也给到服务端；" style="verticalAlign=bottom;endArrow=block;entryX=0;entryY=0;shadow=0;strokeWidth=1;align=left;rounded=1;" parent="1" source="3nuBFxr9cyL0pnOWT2aG-2" target="3nuBFxr9cyL0pnOWT2aG-6" edge="1">
          <mxGeometry x="-0.6897" y="-20" relative="1" as="geometry">
            <mxPoint x="275" y="160" as="sourcePoint" />
            <mxPoint as="offset" />
          </mxGeometry>
        </mxCell>
        <mxCell id="3nuBFxr9cyL0pnOWT2aG-9" value="callback" style="verticalAlign=bottom;endArrow=block;entryX=1;entryY=0;shadow=0;strokeWidth=1;rounded=1;" parent="1" source="3nuBFxr9cyL0pnOWT2aG-6" target="3nuBFxr9cyL0pnOWT2aG-4" edge="1">
          <mxGeometry relative="1" as="geometry">
            <mxPoint x="240" y="200" as="sourcePoint" />
          </mxGeometry>
        </mxCell>
        <mxCell id="URJae1KiC8IEKNUxSkG4-1" value="支付宝服务端" style="shape=umlLifeline;perimeter=lifelinePerimeter;container=1;collapsible=0;recursiveResize=0;rounded=1;shadow=0;strokeWidth=1;" vertex="1" parent="1">
          <mxGeometry x="660" y="80" width="100" height="340" as="geometry" />
        </mxCell>
        <mxCell id="URJae1KiC8IEKNUxSkG4-2" value="" style="points=[];perimeter=orthogonalPerimeter;rounded=1;shadow=0;strokeWidth=1;" vertex="1" parent="URJae1KiC8IEKNUxSkG4-1">
          <mxGeometry x="45" y="80" width="10" height="200" as="geometry" />
        </mxCell>
        <mxCell id="URJae1KiC8IEKNUxSkG4-4" style="edgeStyle=orthogonalEdgeStyle;rounded=1;orthogonalLoop=1;jettySize=auto;html=1;" edge="1" parent="1">
          <mxGeometry relative="1" as="geometry">
            <mxPoint x="390" y="168" as="sourcePoint" />
            <mxPoint x="680" y="168" as="targetPoint" />
          </mxGeometry>
        </mxCell>
        <mxCell id="URJae1KiC8IEKNUxSkG4-5" value="第二步：&lt;br style=&quot;font-size: 10px;&quot;&gt;1. 服务端调用支付宝API创建预支付订单；&lt;br style=&quot;font-size: 10px;&quot;&gt;2. 支付宝参数returnUrl：给与服务端的URL，&lt;br style=&quot;font-size: 10px;&quot;&gt;作为拼接form表单参数并重定向客户端URL使用" style="edgeLabel;html=1;align=left;verticalAlign=middle;resizable=0;points=[];fontSize=10;rounded=1;" vertex="1" connectable="0" parent="URJae1KiC8IEKNUxSkG4-4">
          <mxGeometry x="-0.0788" y="-2" relative="1" as="geometry">
            <mxPoint x="-122" y="-10" as="offset" />
          </mxGeometry>
        </mxCell>
        <mxCell id="URJae1KiC8IEKNUxSkG4-7" style="edgeStyle=orthogonalEdgeStyle;rounded=1;orthogonalLoop=1;jettySize=auto;html=1;entryX=1.1;entryY=0.5;entryDx=0;entryDy=0;entryPerimeter=0;fontSize=10;" edge="1" parent="1" source="URJae1KiC8IEKNUxSkG4-2" target="URJae1KiC8IEKNUxSkG4-6">
          <mxGeometry relative="1" as="geometry" />
        </mxCell>
        <mxCell id="URJae1KiC8IEKNUxSkG4-8" value="第三步：&lt;br&gt;1. callback，支付宝回调服务端；&lt;br&gt;2. 服务端从缓存中取出form表单，&lt;br&gt;并重定向到第一步客户端给的页面地址上" style="edgeLabel;html=1;align=left;verticalAlign=middle;resizable=0;points=[];fontSize=10;rounded=1;" vertex="1" connectable="0" parent="URJae1KiC8IEKNUxSkG4-7">
          <mxGeometry x="0.0838" y="-1" relative="1" as="geometry">
            <mxPoint x="-101" y="1" as="offset" />
          </mxGeometry>
        </mxCell>
        <mxCell id="URJae1KiC8IEKNUxSkG4-11" value="支付宝客户端" style="shape=umlLifeline;perimeter=lifelinePerimeter;container=1;collapsible=0;recursiveResize=0;rounded=1;shadow=0;strokeWidth=1;" vertex="1" parent="1">
          <mxGeometry x="830" y="80" width="100" height="340" as="geometry" />
        </mxCell>
        <mxCell id="URJae1KiC8IEKNUxSkG4-12" value="" style="points=[];perimeter=orthogonalPerimeter;rounded=1;shadow=0;strokeWidth=1;" vertex="1" parent="URJae1KiC8IEKNUxSkG4-11">
          <mxGeometry x="45" y="80" width="10" height="200" as="geometry" />
        </mxCell>
        <mxCell id="URJae1KiC8IEKNUxSkG4-13" style="edgeStyle=orthogonalEdgeStyle;rounded=1;orthogonalLoop=1;jettySize=auto;html=1;entryX=1;entryY=0.7;entryDx=0;entryDy=0;entryPerimeter=0;fontSize=10;" edge="1" parent="1" source="3nuBFxr9cyL0pnOWT2aG-2" target="URJae1KiC8IEKNUxSkG4-12">
          <mxGeometry relative="1" as="geometry">
            <Array as="points">
              <mxPoint x="830" y="300" />
              <mxPoint x="830" y="300" />
            </Array>
          </mxGeometry>
        </mxCell>
        <mxCell id="URJae1KiC8IEKNUxSkG4-14" value="第四步：&lt;br&gt;客户端模拟form表单提交，调用支付宝，唤起支付" style="edgeLabel;html=1;align=center;verticalAlign=middle;resizable=0;points=[];fontSize=10;rounded=1;" vertex="1" connectable="0" parent="URJae1KiC8IEKNUxSkG4-13">
          <mxGeometry x="-0.775" y="-1" relative="1" as="geometry">
            <mxPoint x="56" as="offset" />
          </mxGeometry>
        </mxCell>
        <mxCell id="URJae1KiC8IEKNUxSkG4-20" style="edgeStyle=orthogonalEdgeStyle;rounded=1;orthogonalLoop=1;jettySize=auto;html=1;entryX=1.5;entryY=0.9;entryDx=0;entryDy=0;entryPerimeter=0;fontSize=10;" edge="1" parent="1" source="URJae1KiC8IEKNUxSkG4-2" target="3nuBFxr9cyL0pnOWT2aG-6">
          <mxGeometry relative="1" as="geometry">
            <Array as="points">
              <mxPoint x="670" y="340" />
              <mxPoint x="670" y="340" />
            </Array>
          </mxGeometry>
        </mxCell>
        <mxCell id="URJae1KiC8IEKNUxSkG4-21" value="第五步：&lt;br&gt;1. 支付宝服务端通过回调地址，返回支付成功或者失败" style="edgeLabel;html=1;align=left;verticalAlign=middle;resizable=0;points=[];fontSize=10;rounded=1;" vertex="1" connectable="0" parent="URJae1KiC8IEKNUxSkG4-20">
          <mxGeometry x="0.322" y="2" relative="1" as="geometry">
            <mxPoint x="-90" as="offset" />
          </mxGeometry>
        </mxCell>
        <mxCell id="URJae1KiC8IEKNUxSkG4-22" value="支付宝H5支付" style="text;html=1;align=center;verticalAlign=middle;resizable=0;points=[];autosize=1;strokeColor=none;fillColor=none;fontSize=15;fontStyle=1;rounded=1;" vertex="1" parent="1">
          <mxGeometry x="20" y="40" width="120" height="30" as="geometry" />
        </mxCell>
      </root>
    </mxGraphModel>
  </diagram>
</mxfile>
